<?xml version="1.0" standalone="no"?>
<!DOCTYPE svg PUBLIC "-//W3C//DTD SVG 1.1//EN" "http://www.w3.org/Graphics/SVG/1.1/DTD/svg11.dtd" >
<!--
2019-6-4: Created.
-->
<svg xmlns="http://www.w3.org/2000/svg">
<metadata>
Created by FontForge 20120731 at Tue Jun  4 13:53:38 2019
 By icons8

</metadata>
<defs>
<font id="audioMotion" horiz-adv-x="512" >
  <font-face 
    font-family="audioMotion"
    font-weight="500"
    font-stretch="normal"
    units-per-em="512"
    panose-1="2 0 6 3 0 0 0 0 0 0"
    ascent="448"
    descent="-64"
    bbox="-0.369511 -64 512.065 448.32"
    underline-thickness="25.6"
    underline-position="-51.2"
    unicode-range="U+0020-F122"
  />
    <missing-glyph />
    <glyph glyph-name="space" unicode=" " horiz-adv-x="200" 
 />
    <glyph glyph-name="shuffle" unicode="&#xf105;" 
d="M368 400l80 -80l-80 -80v64h-54.5l-144 -256h-105.5v32h86.5l63 112l-63 112h-86.5v32h105.5l62.5 -111.5l58 103.5l4.5 8h73.5v64zM268.5 160l45 -80h54.5v64l80 -80l-80 -80v64h-73.5l-44.5 79z" />
    <glyph glyph-name="save-as" unicode="&#xf11f;" 
d="M51.2002 427.52h337.92c2.71973 0 5.43945 -0.959961 7.36035 -2.87988l92.1592 -92.1592c1.91992 -1.9209 2.87988 -4.64062 2.87988 -7.36035v-44.7998c-22.0391 7.95996 -47.6797 3.19922 -65.2793 -14.4004l-84.4805 -84.4795h-210.56
c-15.6807 0 -28.4805 -12.8008 -28.4805 -28.4805v-176h306.561v96l82.2393 82.2402v-168c0 -16.9199 -13.7998 -30.7197 -30.7197 -30.7197h-409.6c-16.9199 0 -30.7197 13.7998 -30.7197 30.7197v409.6c0 16.9199 13.7998 30.7197 30.7197 30.7197zM122.88 407.04
c-11.2803 0 -20.4795 -9.2002 -20.4795 -20.4805v-112.64c0 -11.2803 9.19922 -20.4795 20.4795 -20.4795h235.521c11.2793 0 20.4795 9.19922 20.4795 20.4795v112.64c0 11.2803 -9.2002 20.4805 -20.4795 20.4805h-235.521zM307.2 386.56h30.7197
c5.67969 0 10.2402 -4.55957 10.2402 -10.2393v-92.1602c0 -5.67969 -4.56055 -10.2402 -10.2402 -10.2402h-30.7197c-5.68066 0 -10.2402 4.56055 -10.2402 10.2402v92.1602c0 5.67969 4.55957 10.2393 10.2402 10.2393zM470.4 263.68
c10.6797 0 21.2793 -4 29.4395 -12.1602c16.2803 -16.2793 16.3203 -42.8799 0 -59.1992c0 0 -1.47949 -1.16016 -2.55957 -2.24023c-0.520508 -0.839844 -1.16016 -1.59961 -1.91992 -2.24023c-1.2002 -1.2002 -2.56055 -2.55957 -2.56055 -2.55957l-158.08 -158.08
c-1.2002 -1.32031 -2.75977 -2.32031 -4.47949 -2.87988l-61.4404 -16.3203c-3.51953 -0.919922 -7.24023 0.120117 -9.7998 2.67969c-2.55957 2.56055 -3.59961 6.28027 -2.67969 9.80078l16.3193 61.4395c0.560547 1.71973 1.56055 3.28027 2.87988 4.48047
l160.641 160.64c0.639648 0.759766 1.39941 1.40039 2.24023 1.91992l2.23926 2.55957c8.16016 8.16016 19.0801 12.1602 29.7607 12.1602zM448 230.08l-156.16 -156.16l-0.320312 -0.639648l30.0801 -30.0801l0.640625 0.319336l156.16 156.16zM61.4404 28.1602v-20.4805
h20.4795v20.4805h-20.4795zM430.08 28.1602v-20.4805h20.4795v20.4805h-20.4795z" />
    <glyph glyph-name="back-arrow" unicode="&#xf119;" 
d="M204.16 315.2c8.55957 0.479492 16.4795 -4.40039 19.9199 -12.2402c3.43945 -7.87988 1.59961 -17 -4.56055 -22.96l-66.8799 -67.5195h256.96c7.40039 0.119141 14.2402 -3.76074 17.96 -10.1602c3.76074 -6.36035 3.76074 -14.2803 0 -20.6406
c-3.71973 -6.39941 -10.5596 -10.2793 -17.96 -10.1602h-256.96l66.8799 -67.5195c7.96094 -8.12012 7.80078 -21.1602 -0.319336 -29.1201s-21.1602 -7.7998 -29.1201 0.320312l-101.12 102.399l-14.0801 14.4004l14.0801 14.4004l101.12 102.399
c3.67969 3.87988 8.71973 6.2002 14.0801 6.40039z" />
    <glyph glyph-name="opened-folder-2" unicode="&#xf117;" 
d="M30.7197 407.04h112.641c13.4795 0 21.5596 -13.04 29.4395 -25.5996c3.16016 -5.04004 9 -14.3203 11.8398 -15.3604h265.92c16.9209 0 30.7207 -13.7998 30.7207 -30.7197v-10.2402h-394.88c-28.5605 0 -48.5605 -15.7197 -53.7607 -42.2402
c-0.839844 -4.36035 -17.6396 -93.9199 -32.6396 -173.76v267.2c0 16.9199 13.7998 30.7197 30.7197 30.7197zM86.4004 304.64h394.88c16.9199 0 30.7197 -13.7998 30.7197 -30.7197l-0.320312 -1.91992l-50.8799 -275.52
c-0.55957 -16.4805 -14.1201 -29.7607 -30.7197 -29.7607h-399.36c-16.9199 0 -30.7197 13.7998 -30.7197 30.7207v0.639648c11.5996 61.7197 51.4805 274 52.7998 280.64c4.16016 21.3203 20.4805 25.9199 33.6006 25.9199z" />
    <glyph glyph-name="shuffle-2" unicode="&#xf111;" 
d="M395.708 396.542c3.70605 0.433594 7.63867 -0.72168 10.75 -3.83398l55.917 -55.875c9.30176 -9.30078 9.30176 -24.3652 0 -33.666l-55.917 -55.875c-8.29785 -8.29883 -22.458 -2.4209 -22.458 9.29102v42.084h-73.083l-62.209 -106.709l62.167 -106.583
l0.0419922 -0.0419922h73.083v42.084c0 11.7334 14.1602 17.5898 22.458 9.29102l55.917 -55.875c9.30176 -9.30078 9.30176 -24.3652 0 -33.666l-55.917 -55.875c-8.29785 -8.29883 -22.458 -2.4209 -22.458 9.29102v42.084h-73.083
c-15.1455 0 -29.1895 8.08691 -36.834 21.125l-50.083 85.875l-50.042 -85.834c-7.62891 -13.084 -21.7295 -21.166 -36.875 -21.166h-73.083c-0.0830078 -0.00195312 -0.21875 -0.00292969 -0.301758 -0.00292969c-11.7773 0 -21.335 9.55859 -21.335 21.3359
s9.55762 21.3359 21.335 21.3359c0.0830078 0 0.21875 -0.000976562 0.301758 -0.00292969h73.083l62.209 106.667l-62.209 106.667h-73.083l-0.301758 -0.00292969c-11.7773 0 -21.335 9.55859 -21.335 21.3359s9.55762 21.3359 21.335 21.3359l0.301758 -0.00292969
h73.083c15.1455 0 29.2051 -8.08203 36.834 -21.166l50.083 -85.834l50.083 85.834c7.62891 13.084 21.6885 21.166 36.834 21.166h73.083v42.084c0 7.33301 5.53223 12.4004 11.708 13.125z" />
    <glyph glyph-name="warn-2" unicode="&#xf101;" 
d="M256 383.375c12.0146 0 24.0244 -5.59863 30.75 -16.792l187.667 -312.208c13.8291 -22.998 -3.91406 -54.375 -30.75 -54.375h-375.375c-26.8438 0 -44.5381 31.377 -30.709 54.375l187.667 312.208c6.72559 11.1934 18.7354 16.792 30.75 16.792zM256 334.958
l-175.708 -292.291h351.416zM234.667 256h42.666v-106.667h-42.666v106.667zM234.667 106.667h42.666v-42.667h-42.666v42.667z" />
    <glyph glyph-name="hard-drive" unicode="&#xf115;" 
d="M78.7197 448h354.561c9.35938 0 17.6396 -7 19.2002 -16.3203l52.4795 -313.92c-4.28027 1.52051 -8.63965 2.56055 -13.4404 2.56055h-471.039c-4.9209 0 -9.7207 -0.959961 -14.0801 -2.56055l53.1191 313.92c1.56055 9.28027 9.88086 16.3203 19.2002 16.3203z
M256 366.08c-79.1201 0 -143.36 -45.8398 -143.36 -102.4c0 -56.5195 64.2402 -102.399 143.36 -102.399s143.36 45.8799 143.36 102.399c0 56.5605 -64.2402 102.4 -143.36 102.4zM256 294.4c16.96 0 30.7197 -9.16016 30.7197 -20.4805
s-13.7598 -20.4795 -30.7197 -20.4795s-30.7197 9.15918 -30.7197 20.4795s13.7598 20.4805 30.7197 20.4805zM20.4805 99.8398h471.039c11.2803 0 20.4805 -9.2002 20.4805 -20.4795v-122.88c0 -11.2803 -9.2002 -20.4805 -20.4805 -20.4805h-471.039
c-11.2803 0 -20.4805 9.2002 -20.4805 20.4805v122.88c0 11.2793 9.2002 20.4795 20.4805 20.4795zM409.6 38.4004c-11.3193 0 -20.4795 -9.16016 -20.4795 -20.4805s9.16016 -20.4795 20.4795 -20.4795c11.3203 0 20.4805 9.15918 20.4805 20.4795
s-9.16016 20.4805 -20.4805 20.4805z" />
    <glyph glyph-name="console" unicode="&#xf11c;" 
d="M64 384h384v-384h-362.667h-21.333v384zM106.667 277.333v-234.666h298.666v234.666h-298.666zM166.25 217.75l68.417 -68.417l-68.417 -68.416l-21.333 21.333l47.083 47.083l-47.083 47.084zM256 117.333h106.667v-32h-106.667v32z" />
    <glyph glyph-name="music-note-outline" unicode="&#xf118;" 
d="M431.616 406.528c0 0 18.9434 4.40332 18.9434 -19.9688v-286.72c0 -27.4434 -1.53516 -81.9199 -72.2939 -81.9199c-76.2881 0 -81.3057 37.0693 -81.3057 61.4404c0 36.249 23.9619 51.1992 81.9199 51.1992c40.6533 0 51.2002 18.3301 51.2002 40.96v117.781
c0 6.54297 -6.02148 11.4072 -12.4111 10.0039c-57.7842 -12.6562 -172.093 -37.5391 -225.361 -49.1924c-4.7002 -1.03418 -7.9873 -5.18164 -7.9873 -9.99414v-191.479c0 -27.4424 -1.53613 -81.9199 -72.2949 -81.9199c-76.2881 0 -81.3057 37.0693 -81.3057 61.4404
c0 36.249 23.9619 51.2002 81.9199 51.2002c40.6533 0 51.2002 18.3291 51.2002 40.96v215.04c0 9.83008 3.99414 16.4863 14.0293 18.6367c16.6904 3.68652 253.747 52.5312 253.747 52.5312z" />
    <glyph glyph-name="mic" unicode="&#xf106;" 
d="M256 448.32c62.0801 0 112.96 -49.2002 112.96 -110.08v-128.641c0 -60.8799 -50.8799 -110.08 -112.96 -110.08s-112.96 49.2002 -112.96 110.08v128.641c0 60.8799 50.8799 110.08 112.96 110.08zM256 427.2c-51.04 0 -91.8398 -39.7598 -91.8398 -88.96v-2.87988h56
c3.67969 0.0400391 7.12012 -1.87988 9 -5.08008c1.83984 -3.2002 1.83984 -7.12012 0 -10.3203c-1.87988 -3.2002 -5.32031 -5.12012 -9 -5.08008h-56v-20.4795h56c3.67969 0.0400391 7.12012 -1.88086 9 -5.08008c1.83984 -3.2002 1.83984 -7.12012 0 -10.3203
c-1.87988 -3.2002 -5.32031 -5.12012 -9 -5.08008h-56v-20.4795h56c3.67969 0.0400391 7.12012 -1.88086 9 -5.08008c1.83984 -3.2002 1.83984 -7.12012 0 -10.3203c-1.87988 -3.2002 -5.32031 -5.12012 -9 -5.08008h-56v-23.3604c0 -49.1992 40.7998 -88.96 91.8398 -88.96
s91.8398 39.7607 91.8398 88.96v23.3604h-56c-5.63965 -0.280273 -10.4395 4.12012 -10.7197 9.75977c-0.280273 5.64062 4.12012 10.4404 9.75977 10.7207h0.959961h56v20.4795h-56c-5.63965 -0.280273 -10.4395 4.12012 -10.7197 9.75977
c-0.280273 5.64062 4.12012 10.4404 9.75977 10.7207h0.959961h56v20.4795h-56c-5.63965 -0.280273 -10.4395 4.12012 -10.7197 9.75977c-0.280273 5.64062 4.12012 10.4404 9.75977 10.7207h0.959961h56v2.87988c0 49.2002 -40.7998 88.96 -91.8398 88.96zM100.48 272.64
h0.959961c2.55957 0.320312 5.0791 -0.519531 7 -2.23926c1.87988 -1.7207 2.95996 -4.16016 2.91992 -6.7207v-51.1992c0 -79.8809 64.7598 -144.641 144.64 -144.641s144.64 64.7598 144.64 144.641v51.1992c0 4.95996 4 8.95996 8.95996 8.95996
s8.95996 -4 8.95996 -8.95996v-51.1992c0 -78.8809 -56.7998 -145.08 -131.52 -159.681v-65.5996h65.2803c19.4795 0 35.5195 -16.0801 35.5195 -35.5205v-15.04h-264.96v15.04c0 19.4404 16.04 35.5205 35.5205 35.5205h66.5596v65.5996
c-74.7197 14.6006 -131.52 80.7998 -131.52 159.681v51.1992c-0.120117 4.28027 2.83984 8.08008 7.04004 8.95996zM246.08 50.5596v-63.04h19.8398v63.04c-3.28027 -0.199219 -6.59961 -0.639648 -9.91992 -0.639648s-6.63965 0.44043 -9.91992 0.639648zM158.4 -33.2803
c-6.60059 0 -10.9199 -4.31934 -13.1201 -9.91992h220.16c-2.2002 5.60059 -6.56055 9.91992 -13.1201 9.91992h-73.6006c-0.719727 -0.200195 -1.47949 -0.279297 -2.23926 -0.319336h-40.9609c-0.879883 0 -1.71973 0.119141 -2.55957 0.319336h-74.5596z" />
    <glyph glyph-name="skip-this-track" unicode="&#xf10a;" 
d="M119.467 345.6h0.000976562c3.09863 0 7.63867 -1.49316 10.1318 -3.33301l187.101 -136.1c4.17285 -2.79688 7.56348 -9.14355 7.56641 -14.167v-0.0136719c0 -5.1416 -3.50879 -11.5713 -7.83301 -14.3525l-186.367 -135.534
c-0.126953 -0.103516 -0.335938 -0.267578 -0.466797 -0.366211h-0.0332031c-2.48535 -1.83398 -7.01074 -3.32715 -10.0996 -3.33301c-9.4209 0 -17.0664 7.64551 -17.0664 17.0664v0.0332031v0.0332031v136.467v136.467v0.0332031v0.0332031
c0 9.4209 7.64551 17.0664 17.0664 17.0664zM384 345.6c14.1309 0 25.5996 -11.4688 25.5996 -25.5996v-256c0 -14.1309 -11.4688 -25.5996 -25.5996 -25.5996s-25.5996 11.4688 -25.5996 25.5996v256c0 14.1309 11.4688 25.5996 25.5996 25.5996z" />
    <glyph glyph-name="previous-track-2" unicode="&#xf10e;" 
d="M85.333 320c11.7764 0 21.334 -9.55762 21.334 -21.333v-213.334c0 -11.7754 -9.55762 -21.333 -21.334 -21.333c-11.7754 0 -21.333 9.55762 -21.333 21.333v213.334c0 11.7754 9.55762 21.333 21.333 21.333zM254.917 300.167
c11.4502 0.556641 22.416 -8.35742 22.416 -21.334v-173.666c0 -17.3018 -19.4805 -27.4014 -33.625 -17.417l-123.041 86.833c-12.0322 8.49121 -12.0322 26.3428 0 34.834l123.041 86.833c3.53613 2.49609 7.3916 3.73145 11.209 3.91699zM425.583 300.167
c11.4512 0.556641 22.417 -8.35742 22.417 -21.334v-173.666c0 -17.3018 -19.4814 -27.4014 -33.625 -17.417l-123.042 86.833c-12.0312 8.49121 -12.0312 26.3428 0 34.834l123.042 86.833c3.53613 2.49609 7.3916 3.73145 11.208 3.91699z" />
    <glyph glyph-name="music-album" unicode="&#xf113;" 
d="M61.4404 386.56h30.7197v-337.92c0 -5.63184 4.60742 -10.2393 10.2402 -10.2393c5.63184 0 10.2393 4.60742 10.2393 10.2393v337.92h337.92c16.8965 0 30.7207 -13.8232 30.7207 -30.7197v-327.68c0 -16.998 -13.7217 -30.7197 -30.7207 -30.7197h-389.119
c-16.8965 0 -30.7207 13.8232 -30.7207 30.7197v327.68c0 16.8965 13.8242 30.7197 30.7207 30.7197zM286.72 335.36c-79.1553 0 -143.359 -64.2051 -143.359 -143.36s64.2041 -143.36 143.359 -143.36c3.44922 0 6.83203 0.280273 10.2207 0.520508
c3.70801 0.310547 7.40039 0.650391 10.9795 1.21973c51.9141 7.72168 94.6719 43.1895 112.76 90.9199c1.69336 4.57715 3.2207 9.27344 4.5 14.0605c0.0810547 0.305664 0.161133 0.612305 0.240234 0.919922c1.10254 4.22656 1.92285 8.5293 2.66016 12.8594
c1.19922 7.46289 2 15.0605 2 22.8604c0 79.1553 -64.2051 143.36 -143.36 143.36zM286.72 253.44c33.8115 0 61.4404 -27.6289 61.4404 -61.4404s-27.6289 -61.4404 -61.4404 -61.4404c-33.8105 0 -61.4395 27.6289 -61.4395 61.4404s27.6289 61.4404 61.4395 61.4404z
M286.72 232.96c-22.7422 0 -40.96 -18.2168 -40.96 -40.96s18.2178 -40.96 40.96 -40.96c22.7432 0 40.96 18.2168 40.96 40.96s-18.2168 40.96 -40.96 40.96zM286.72 212.48c11.1895 0 20.4805 -9.29102 20.4805 -20.4805s-9.29102 -20.4805 -20.4805 -20.4805
s-20.4795 9.29102 -20.4795 20.4805s9.29004 20.4805 20.4795 20.4805zM428.02 168.68c-0.563477 -3.43848 -1.23535 -6.82812 -2.03906 -10.1797c0.806641 3.35156 1.47852 6.74121 2.03906 10.1797zM424.7 153.54c-1.13574 -4.07812 -2.44141 -8.07715 -3.91992 -12
c1.51172 3.91504 2.77832 7.93848 3.91992 12zM304.32 49.8398c-2.15332 -0.263672 -4.31836 -0.47168 -6.5 -0.639648c2.18945 0.166992 4.35547 0.382812 6.5 0.639648z" />
    <glyph glyph-name="save" unicode="&#xf11e;" 
d="M51.2002 427.52h337.92c2.71973 0 5.43945 -0.959961 7.36035 -2.87988l92.1592 -92.1592c1.91992 -1.9209 2.87988 -4.64062 2.87988 -7.36035v-337.92c0 -16.9199 -13.7998 -30.7197 -30.7197 -30.7197h-409.6c-16.9199 0 -30.7197 13.7998 -30.7197 30.7197v409.6
c0 16.9199 13.7998 30.7197 30.7197 30.7197zM122.88 407.04c-11.2803 0 -20.4795 -9.2002 -20.4795 -20.4805v-112.64c0 -11.2803 9.19922 -20.4795 20.4795 -20.4795h235.521c11.2793 0 20.4795 9.19922 20.4795 20.4795v112.64
c0 11.2803 -9.2002 20.4805 -20.4795 20.4805h-235.521zM307.2 386.56h30.7197c5.67969 0 10.2402 -4.55957 10.2402 -10.2393v-92.1602c0 -5.67969 -4.56055 -10.2402 -10.2402 -10.2402h-30.7197c-5.68066 0 -10.2402 4.56055 -10.2402 10.2402v92.1602
c0 5.67969 4.55957 10.2393 10.2402 10.2393zM131.2 181.44c-15.6807 0 -28.4805 -12.8008 -28.4805 -28.4805v-176h306.561v176c0 15.6797 -12.7998 28.4805 -28.4805 28.4805h-249.6zM61.4404 28.1602v-20.4805h20.4795v20.4805h-20.4795zM430.08 28.1602v-20.4805
h20.4795v20.4805h-20.4795z" />
    <glyph glyph-name="skip-this-track-2" unicode="&#xf10f;" 
d="M426.667 320c11.7754 0 21.333 -9.55762 21.333 -21.333v-213.334c0 -11.7754 -9.55762 -21.333 -21.333 -21.333c-11.7764 0 -21.334 9.55762 -21.334 21.333v213.334c0 11.7754 9.55762 21.333 21.334 21.333zM86.417 300.167
c3.81641 -0.185547 7.67188 -1.4209 11.208 -3.91699l123.042 -86.833c12.0312 -8.49121 12.0312 -26.3428 0 -34.834l-123.042 -86.833c-14.1436 -9.98438 -33.625 0.115234 -33.625 17.417v173.666c0 12.9766 10.9658 21.8906 22.417 21.334zM257.083 300.167
c3.81738 -0.185547 7.67285 -1.4209 11.209 -3.91699l123.041 -86.833c12.0322 -8.49121 12.0322 -26.3428 0 -34.834l-123.041 -86.833c-14.1445 -9.98438 -33.625 0.115234 -33.625 17.417v173.666c0 12.9766 10.9658 21.8906 22.416 21.334z" />
    <glyph glyph-name="vertical-settings-mixer" unicode="&#xf11d;" 
d="M80.96 427.84c2.91992 0.280273 5.83984 -0.719727 8 -2.75977c2.12012 -2 3.32031 -4.83984 3.2002 -7.7998v-71.6807h20.4795c17.4004 0 30.7207 -13.3193 30.7207 -30.7197v-20.4795c0 -17.4004 -13.3203 -30.7207 -30.7207 -30.7207h-61.4395
c-17.4004 0 -30.7197 13.3203 -30.7197 30.7207v20.4795c0 17.4004 13.3193 30.7197 30.7197 30.7197h20.4795v71.6807c-0.120117 4.87988 3.24023 9.16016 8 10.2393c0.400391 0.120117 0.839844 0.240234 1.28027 0.320312zM255.04 427.84
c2.91992 0.280273 5.83984 -0.719727 8 -2.75977c2.12012 -2 3.32031 -4.83984 3.2002 -7.7998v-286.721h20.4795c17.4004 0 30.7207 -13.3193 30.7207 -30.7197v-20.4795c0 -17.4004 -13.3203 -30.7207 -30.7207 -30.7207h-61.4395
c-17.4004 0 -30.7207 13.3203 -30.7207 30.7207v20.4795c0 17.4004 13.3203 30.7197 30.7207 30.7197h20.4795v286.721c-0.120117 4.87988 3.24023 9.16016 8 10.2393c0.400391 0.120117 0.839844 0.240234 1.28027 0.320312zM429.12 427.84
c2.91992 0.280273 5.83984 -0.719727 8 -2.75977c2.12012 -2 3.32031 -4.83984 3.2002 -7.7998v-102.4h20.4795c17.4004 0 30.7197 -13.3203 30.7197 -30.7197v-20.4805c0 -17.3994 -13.3193 -30.7197 -30.7197 -30.7197h-61.4395
c-17.4004 0 -30.7207 13.3203 -30.7207 30.7197v20.4805c0 17.3994 13.3203 30.7197 30.7207 30.7197h20.4795v102.4c-0.120117 4.87988 3.24023 9.16016 8 10.2393c0.400391 0.120117 0.839844 0.240234 1.28027 0.320312zM71.6797 253.44h20.4805v-69.7607
c0.0800781 -0.639648 0.0800781 -1.2793 0 -1.91992v-215.04c0.0400391 -3.67969 -1.87988 -7.12012 -5.08008 -9c-3.2002 -1.83984 -7.12012 -1.83984 -10.3203 0c-3.2002 1.87988 -5.12012 5.32031 -5.08008 9v215.04c-0.0800781 0.640625 -0.0800781 1.28027 0 1.91992
v69.7607zM419.84 222.72h20.4805v-69.7598c0.0800781 -0.639648 0.0800781 -1.28027 0 -1.91992v-184.32c0.0400391 -3.67969 -1.87988 -7.12012 -5.08008 -9c-3.2002 -1.83984 -7.12012 -1.83984 -10.3203 0c-3.2002 1.87988 -5.12012 5.32031 -5.08008 9v184.32
c-0.0800781 0.639648 -0.0800781 1.28027 0 1.91992v69.7598zM245.76 38.4004h20.4805v-18.5605c0.0800781 -0.639648 0.0800781 -1.28027 0 -1.91992v-51.2002c0.0400391 -3.67969 -1.87988 -7.12012 -5.08008 -9c-3.2002 -1.83984 -7.12012 -1.83984 -10.3203 0
c-3.2002 1.87988 -5.12012 5.32031 -5.08008 9v51.2002c-0.0800781 0.639648 -0.0800781 1.28027 0 1.91992v18.5605z" />
    <glyph glyph-name="gear-outline" unicode="&#xf11b;" 
d="M482.918 230.697c4.95703 -0.80957 8.5918 -5.08984 8.58105 -10.1074v-56.3193c0 -4.9668 -3.56348 -9.22656 -8.46777 -10.0869l-60.6006 -10.6396c-3.5127 -12.1445 -8.33496 -23.8379 -14.4072 -34.8975l35.8193 -49.7354
c2.93848 -4.07617 2.47754 -9.67676 -1.06543 -13.2305l-39.8125 -39.8438c-3.52344 -3.5127 -9.05273 -4.01465 -13.1279 -1.13672l-50.2275 35.2354c-11.0791 -6.16406 -22.8457 -11.0791 -35.123 -14.6943l-10.7012 -60.3135
c-0.859375 -4.88379 -5.10938 -8.44727 -10.0762 -8.44727h-56.3193c-5.00781 0 -9.27734 3.61426 -10.0869 8.54004l-9.99414 60.0166c-12.2568 3.54297 -24.084 8.42676 -35.2764 14.5811l-49.8691 -34.9287c-4.06543 -2.85645 -9.60547 -2.36523 -13.1172 1.14746
l-39.8135 39.8438c-3.53223 3.55371 -3.99316 9.13379 -1.08496 13.1992l35.2354 49.2852c-6.21582 11.2432 -11.1514 23.1113 -14.7246 35.4307l-59.71 10.5879c-4.88379 0.870117 -8.44824 5.12012 -8.44824 10.0869v56.3193c0 4.99707 3.625 9.27734 8.56152 10.0967
l59.709 9.94336c3.59473 12.3496 8.53027 24.2178 14.7256 35.4307l-34.8066 49.7969c-2.85645 4.06543 -2.36523 9.59473 1.14746 13.1074l39.8027 39.8027c3.55371 3.53223 9.11328 4.00391 13.1992 1.08496l49.459 -35.3281
c11.1104 6.08301 22.9072 10.9268 35.1953 14.459l9.78906 59.9453c0.80957 4.95605 5.08984 8.59082 10.1074 8.59082h56.3193c4.97754 0 9.22656 -3.58398 10.0869 -8.47852l10.5576 -60.2725c12.2158 -3.55273 23.9922 -8.44824 35.1436 -14.6123l49.5918 35.6455
c4.07617 2.93848 9.66699 2.47754 13.2207 -1.06543l39.8232 -39.8027c3.51172 -3.52246 4.00391 -9.0625 1.14648 -13.1279l-35.3281 -50.3496c6.0625 -11.0488 10.9062 -22.7227 14.4492 -34.8672zM256 120.32c39.5879 0 71.6797 32.0918 71.6797 71.6797
s-32.0918 71.6797 -71.6797 71.6797s-71.6797 -32.0918 -71.6797 -71.6797s32.0918 -71.6797 71.6797 -71.6797z" />
    <glyph glyph-name="repeat" unicode="&#xf104;" 
d="M224 400l80 -80l-80 -80v64h-128v-224h96l-16 -16l16 -16h-128v288h160v64zM320 336h128v-288h-160v-64l-80 80l80 80v-64h128v224h-96l16 16z" />
    <glyph glyph-name="stage-mic" unicode="&#xf112;" 
d="M343.042 383.958c56.3408 -0.874023 104.062 -48.5957 104.958 -104.958c0.725586 -46.7627 -28.7178 -86.3984 -70.083 -101.417c-15.5732 -5.65332 -33.0801 -1.62793 -44.792 10.084l-81.417 81.458c-11.7119 11.7119 -15.7783 29.2188 -10.125 44.792
c15.04 41.3652 54.6963 70.7666 101.459 70.041zM209.875 250.708l104.875 -104.875l-10.958 -9.04102l-179.459 -146.834c-19.8828 -16.2559 -48.8232 -14.8428 -67 3.33398c-18.1758 18.1758 -19.6523 47.1592 -3.375 67.041l146.834 179.459zM213.333 170.667
c-5.45801 0 -10.9121 -2.08008 -15.083 -6.25l-21.333 -21.334c-8.3418 -8.31934 -8.3418 -21.8252 0 -30.166c8.31934 -8.3418 21.8252 -8.3418 30.166 0l21.334 21.333c8.34082 8.32031 8.34082 21.8252 0 30.167c-4.16016 4.16992 -9.625 6.25 -15.084 6.25z" />
    <glyph glyph-name="favorite-2" unicode="&#xf122;" 
d="M104.448 -49.6641c-2.04785 0 -4.09668 1.02441 -6.14453 2.04785c-3.07129 2.04785 -5.12012 7.16797 -4.0957 11.2646l45.0557 167.936l-135.168 109.568c-4.0957 2.04785 -5.12012 7.16797 -4.0957 11.2637s5.12012 7.16797 9.21582 7.16797l174.08 9.21582
l62.4639 162.816c2.04785 3.07129 6.14453 6.14355 10.2402 6.14355s8.19238 -3.07227 9.21582 -6.14355l62.4639 -162.816l174.08 -9.21582c4.09668 0 8.19238 -3.07227 9.21582 -7.16797c1.02441 -4.0957 0 -8.19238 -3.07129 -11.2637l-135.168 -109.568
l45.0557 -167.936c1.02441 -4.09668 0 -8.19238 -4.0957 -11.2646c-3.07227 -2.04785 -8.19238 -3.07129 -11.2646 0l-146.432 94.208l-146.432 -94.208c-2.04883 -2.04785 -3.07227 -2.04785 -5.12012 -2.04785z" />
    <glyph glyph-name="playlist" unicode="&#xf103;" 
d="M368 375.5l22 -8.5l80 -32l-12 -30l-58 23v-248c0 -35.375 -28.625 -64 -64 -64s-64 28.625 -64 64s28.625 64 64 64c11.6875 0 22.5625 -3.5625 32 -9v240.5zM80 368h256v-32h-256v32zM80 288h256v-32h-256v32zM80 208h256v-32h-256v32zM80 128h173
c-5.625 -9.75 -9.5625 -20.5 -11.5 -32h-161.5v32zM80 48h165.5c4.25 -11.9375 10.6875 -22.75 19 -32h-184.5v32z" />
    <glyph glyph-name="warn" unicode="&#xf100;" 
d="M256 396.8c14.1924 0 26.3496 -8.64746 31.5 -20.9668l184.934 -318.967l0.0332031 -0.0332031l0.266602 -0.466797c2.82812 -4.55566 5.12793 -12.6045 5.13379 -17.9658c0 -18.8418 -15.292 -34.1338 -34.1338 -34.1338
c-0.664062 0.0136719 -1.73926 0.0732422 -2.40039 0.133789l-0.0664062 -0.133789h-185.267h-185.267l-0.0664062 0.0996094c-0.662109 -0.0507812 -1.7373 -0.0957031 -2.40039 -0.0996094c-18.8418 0 -34.1328 15.292 -34.1328 34.1338
c0.0107422 5.35156 2.31055 13.3857 5.13281 17.9326v0.0332031l185.233 319.467c5.15039 12.3193 17.3076 20.9668 31.5 20.9668zM235.3 254.134l3.43359 -110.467h34.5332l3.43359 110.467h-41.4004zM256.066 109.9c-14.1484 0 -22.5996 -7.54883 -22.5996 -20.4336
c0 -12.6465 8.46875 -20.167 22.5996 -20.167c14.0293 0 22.4336 7.52051 22.4336 20.167c0 12.8848 -8.4043 20.4336 -22.4336 20.4336z" />
    <glyph glyph-name="track-list" unicode="&#xf102;" 
d="M484.16 364.8c4 0.799805 7.67969 -2 7.67969 -6.08008v-62.3994c0 -3.28027 -2.24023 -6.08008 -5.43945 -6.7207l-76.8008 -15.6797v-218.56c0 -30.7207 -23.7197 -57.9199 -61.4395 -57.9199c-39.2803 0 -51.2002 17.7598 -51.2002 44.7998
c0 62.6396 92.1602 31.5195 92.1602 81.5996v216c0 3.28027 2.2002 6.40039 5.43945 7.04004zM20.4805 345.6h317.439v-20.4795h-317.439v20.4795zM20.4805 263.68h317.439v-20.4795h-317.439v20.4795zM20.4805 181.76h317.439v-20.4795h-317.439v20.4795zM20.4805 99.8398
h245.76v-20.4795h-245.76v20.4795zM20.4805 17.9199h245.76v-20.4795h-245.76v20.4795z" />
    <glyph glyph-name="opened-folder" unicode="&#xf116;" 
d="M30.7197 407.04h112.641c8.39941 0 14.3193 -5.12012 18.5596 -9.91992s7.67969 -10.2402 10.8799 -15.3604s6.12012 -9.91992 8.64062 -12.7998c1.63965 -1.87988 2.55957 -2.63965 2.87988 -2.87988c0.239258 0 0.359375 -0.0400391 0.319336 0h265.92
c16.8408 0 30.7207 -13.8799 30.7207 -30.7197v-30.7207c16.8398 0 30.7197 -13.8799 30.7197 -30.7197v-0.959961l-0.320312 -0.959961l-50.8799 -274.56v-0.320312l-0.319336 -1.60059v-0.639648c-0.0400391 -0.639648 -0.240234 -1.28027 -0.320312 -1.91992
c-2.24023 -14.7197 -14.7998 -26.2402 -30.0801 -26.2402h-399.36c-14.7197 0 -27.2002 10.6807 -30.0801 24.6406c-1.04004 2.19922 -1.2793 4.67969 -0.639648 7.04004v377.92c0 16.8398 13.8799 30.7197 30.7197 30.7197zM30.7197 386.56
c-5.75977 0 -10.2393 -4.47949 -10.2393 -10.2393v-268.16l30.7197 165.76l0.319336 1.91992h0.320312c1.12012 15.8398 13.96 28.7998 30.0801 28.7998h378.88v30.7207c0 5.75977 -4.47949 10.2393 -10.2402 10.2393h-266.239
c-8.40039 0 -14.0801 5.12012 -18.2402 9.91992c-4.16016 4.80078 -7.67969 10.2402 -10.8799 15.3604s-6.12012 9.91992 -8.64062 12.7998c-2.51953 2.87988 -3.83984 2.87988 -3.19922 2.87988h-112.641zM81.9199 284.16c-5.75977 0 -10.2402 -4.48047 -10.2402 -10.2402
v-0.959961l-0.319336 -0.959961l-50.8799 -274.56c0 -5.76074 4.47949 -10.2402 10.2393 -10.2402h399.36c4.67969 0 8.63965 2.87988 9.91992 7.04004c-0.0400391 0.439453 -0.0400391 0.839844 0 1.2793c0.0400391 0.320312 -0.0400391 0.640625 0 0.960938
c0.0800781 0.55957 0.160156 1.0791 0.320312 1.59961v0.320312v0.639648c0.0800781 0.44043 0.199219 0.879883 0.319336 1.28027c0.0800781 0.439453 0.200195 0.879883 0.320312 1.2793l0.320312 0.640625l50.2393 271.68c0 5.75977 -4.47949 10.2402 -10.2393 10.2402
h-399.36z" />
    <glyph glyph-name="repeat-2" unicode="&#xf110;" 
d="M382 426.583c6.23535 0.59082 12.5078 -1.59082 17.083 -6.16602l64 -64c8.3418 -8.3418 8.3418 -21.8252 0 -30.167l-64 -64c-4.07422 -4.07422 -9.53613 -6.25 -15.083 -6.25c-2.75195 0 -5.52148 0.537109 -8.16699 1.625
c-7.97852 3.30664 -13.166 11.0898 -13.166 19.708v42.667h-277.334v-106.667c0.00195312 -0.0830078 0.00292969 -0.217773 0.00292969 -0.301758c0 -11.7764 -9.55859 -21.335 -21.3359 -21.335s-21.3359 9.55859 -21.3359 21.335
c0 0.0839844 0.000976562 0.21875 0.00292969 0.301758v106.667c0 23.3184 19.3477 42.667 42.666 42.667h277.334v42.666c0 8.61914 5.1875 16.4023 13.166 19.709c2 0.821289 4.08887 1.34473 6.16699 1.54102zM447.667 192.292l0.333008 0.00195312
c11.7773 0 21.335 -9.55762 21.335 -21.335l-0.00195312 -0.291992v-106.667c0 -23.3184 -19.3477 -42.667 -42.666 -42.667h-277.334v-42.666c0 -8.64062 -5.1875 -16.4023 -13.166 -19.709c-8 -3.28516 -17.1494 -1.47559 -23.25 4.625l-64 64
c-8.3418 8.32031 -8.3418 21.8252 0 30.167l64 64c4.07422 4.07422 9.53613 6.25 15.083 6.25c2.75195 0 5.52148 -0.537109 8.16699 -1.625c7.97852 -3.30664 13.166 -11.0898 13.166 -19.708v-42.667h277.334v106.667l-0.00195312 0.291992
c0 11.5947 9.4082 21.1514 21.002 21.333z" />
    <glyph glyph-name="pause-button" unicode="&#xf10c;" 
d="M170.667 341.333c23.5732 0 42.666 -19.0928 42.666 -42.666v-213.334c0 -23.5732 -19.0928 -42.666 -42.666 -42.666s-42.667 19.0928 -42.667 42.666v213.334c0 23.5732 19.0938 42.666 42.667 42.666zM341.333 341.333c23.5732 0 42.667 -19.0928 42.667 -42.666
v-213.334c0 -23.5732 -19.0938 -42.666 -42.667 -42.666s-42.666 19.0928 -42.666 42.666v213.334c0 23.5732 19.0928 42.666 42.666 42.666z" />
    <glyph glyph-name="music-album-2" unicode="&#xf114;" 
d="M102.24 386.7h0.0517578c0.46875 0 1.22559 -0.0625 1.68848 -0.140625h346.579c16.8447 0 30.7207 -13.875 30.7207 -30.7197v-327.68c0 -16.8447 -13.876 -30.7197 -30.7207 -30.7197h-389.119c-16.8447 0 -30.7207 13.875 -30.7207 30.7197v327.68
c0 16.8447 13.876 30.7197 30.7207 30.7197h39.3193c0.40625 0.0683594 1.06934 0.131836 1.48047 0.140625zM61.4404 366.08c-5.78613 0 -10.2402 -4.4541 -10.2402 -10.2402v-327.68c0 -5.78613 4.4541 -10.2402 10.2402 -10.2402h389.119
c5.78613 0 10.2402 4.4541 10.2402 10.2402v327.68c0 5.78613 -4.4541 10.2402 -10.2402 10.2402h-337.92v-317.44l0.000976562 -0.144531c0 -5.65332 -4.58789 -10.2412 -10.2402 -10.2412c-5.65332 0 -10.2412 4.58789 -10.2412 10.2412l0.000976562 0.144531v317.44
h-30.7197zM286.72 345.6c84.71 0 153.601 -68.8896 153.601 -153.6s-68.8906 -153.6 -153.601 -153.6c-84.709 0 -153.6 68.8896 -153.6 153.6s68.8906 153.6 153.6 153.6zM286.72 325.12c-73.6416 0 -133.12 -59.4785 -133.12 -133.12s59.4785 -133.12 133.12 -133.12
s133.12 59.4785 133.12 133.12s-59.4785 133.12 -133.12 133.12zM286.72 253.44c33.8115 0 61.4404 -27.6289 61.4404 -61.4404s-27.6289 -61.4404 -61.4404 -61.4404c-33.8105 0 -61.4395 27.6289 -61.4395 61.4404s27.6289 61.4404 61.4395 61.4404zM286.72 232.96
c-22.7422 0 -40.96 -18.2168 -40.96 -40.96s18.2178 -40.96 40.96 -40.96c22.7432 0 40.96 18.2168 40.96 40.96s-18.2168 40.96 -40.96 40.96zM286.72 212.48c11.1895 0 20.4805 -9.29102 20.4805 -20.4805s-9.29102 -20.4805 -20.4805 -20.4805
s-20.4795 9.29102 -20.4795 20.4805s9.29004 20.4805 20.4795 20.4805z" />
    <glyph glyph-name="stop-symbol" unicode="&#xf10d;" 
d="M362.667 42.667h-213.334c-23.5732 0 -42.666 19.0928 -42.666 42.666v213.334c0 23.5732 19.0928 42.666 42.666 42.666h213.334c23.5732 0 42.666 -19.0928 42.666 -42.666v-213.334c0 -23.5732 -19.0928 -42.666 -42.666 -42.666z" />
    <glyph glyph-name="favorite" unicode="&#xf121;" 
d="M256 437.76c3.86816 -0.00292969 8.14258 -2.93262 9.54004 -6.54004l63.1396 -162.779l173.601 -8.86035c5.36719 -0.271484 9.72266 -4.85352 9.72266 -10.2275c0 -2.68262 -1.68555 -6.23633 -3.7627 -7.93262l-135.181 -110.52l44.4004 -167.7
c0.189453 -0.712891 0.342773 -1.89062 0.342773 -2.62793c0 -5.65332 -4.58789 -10.2412 -10.2412 -10.2412c-1.66113 0 -4.14453 0.729492 -5.54199 1.62891l-146.02 93.7197l-146.02 -93.7197c-1.39746 -0.899414 -3.88086 -1.62891 -5.54199 -1.62891
c-5.65332 0 -10.2412 4.58789 -10.2412 10.2412c0 0.737305 0.15332 1.91504 0.342773 2.62793l44.4004 167.7l-135.181 110.52c-2.07715 1.69629 -3.7627 5.25 -3.7627 7.93262c0 5.37402 4.35547 9.95605 9.72266 10.2275l173.601 8.86035l63.1396 162.779
c1.39746 3.60742 5.67188 6.53711 9.54004 6.54004zM256 399.22l-55.9805 -144.359c-1.32715 -3.41797 -5.37695 -6.33887 -9.03906 -6.52051l-153.7 -7.85938l119.72 -97.9004c2.0752 -1.69629 3.75879 -5.24805 3.75879 -7.92871
c0 -0.732422 -0.152344 -1.90234 -0.338867 -2.61133l-39.3398 -148.62l129.38 83.0605c1.39746 0.898438 3.87891 1.62695 5.54004 1.62695s4.14258 -0.728516 5.54004 -1.62695l129.38 -83.0605l-39.3398 148.62c-0.1875 0.708984 -0.338867 1.87891 -0.338867 2.61133
c0 2.68066 1.68359 6.23242 3.75879 7.92871l119.72 97.9004l-153.7 7.85938c-3.66211 0.181641 -7.71191 3.10254 -9.03906 6.52051z" />
    <glyph glyph-name="trash" unicode="&#xf120;" 
d="M215.04 448h81.9199c16.8398 0 30.7197 -13.8799 30.7197 -30.7197v-10.2402h85.1201c12.6406 0 23.6807 -8.67969 27.8398 -20.4805c22.1201 -0.719727 39.96 -18.9199 40.6406 -41.5996c-0.320312 -5.36035 -4.7998 -9.59961 -10.2402 -9.59961h-430.08
c-5.44043 0 -9.87988 4.23926 -10.2402 9.59961c0.680664 22.6797 18.5205 40.8799 40.6406 41.5996c4.15918 11.8008 15.1992 20.4805 27.8398 20.4805h85.1201v10.2402c0 16.8398 13.8799 30.7197 30.7197 30.7197zM215.04 427.52
c-5.67969 0 -10.2402 -4.55957 -10.2402 -10.2393v-10.2402h102.4v10.2402c0 5.67969 -4.56055 10.2393 -10.2402 10.2393h-81.9199zM54.0801 314.88h403.84l-50.5596 -345.6c-4.32031 -20.2002 -19.7607 -33.2803 -38.7207 -33.2803h-225.279
c-19.7207 0 -35.96 13.96 -38.7207 33.2803zM125.76 280.96c-5.59961 -0.759766 -9.71973 -5.91992 -8.95996 -11.5195l33.9199 -255.04c0.680664 -5.16016 4.87988 -8.64062 9.91992 -8.64062c0.44043 0 1.16016 -0.0800781 1.60059 0
c5.59961 0.720703 9.35938 5.91992 8.63965 11.5205l-33.5996 255.04c-0.760742 5.59961 -5.91992 9.31934 -11.5205 8.63965zM212.48 280.96c-5.64062 -0.240234 -9.84082 -4.91992 -9.60059 -10.5596l11.2002 -255.04c0.240234 -5.48047 4.7998 -9.60059 10.2402 -9.60059
h0.319336c5.64062 0.240234 10.1602 4.91992 9.91992 10.5605l-11.1992 255.04c-0.240234 5.67969 -5.48047 9.87988 -10.8799 9.59961zM299.52 280.96c-5.55957 0.120117 -10.6396 -3.95996 -10.8799 -9.59961l-11.1992 -255.04
c-0.240234 -5.64062 4.2793 -10.3203 9.91992 -10.5605h0.319336c5.44043 0 10 4.12012 10.2402 9.60059l11.2002 255.04c0.240234 5.63965 -3.95996 10.3193 -9.60059 10.5596zM386.24 280.96c-5.64062 0.719727 -10.7998 -3.04004 -11.5205 -8.63965l-33.5996 -255.04
c-0.759766 -5.60059 3.04004 -10.7998 8.63965 -11.5205c0.480469 -0.0800781 1.16016 0 1.60059 0c5.04004 0 9.23926 3.48047 9.91992 8.64062l33.9199 255.04c0.759766 5.59961 -3.36035 10.7998 -8.95996 11.5195z" />
    <glyph glyph-name="simple-arrow" unicode="&#xf11a;" 
d="M329.08 416.64c2.75977 0.0400391 5.43945 -1.04004 7.40039 -3.04004l61.1592 -61.6797c4 -4 3.95996 -10.4795 -0.0400391 -14.4795l-146.96 -145.761l145.761 -146.92c4 -4.04004 3.95996 -10.5195 -0.0800781 -14.5195l-61.6807 -61.1602
c-4 -4 -10.4795 -3.95996 -14.4795 0.0400391l-214.16 215.92c-4 4 -3.95996 10.4795 0.0800781 14.4795l215.88 214.16c1.91992 1.87988 4.44043 2.95996 7.12012 2.95996z" />
    <glyph glyph-name="mic-3" unicode="&#xf108;" 
d="M348.16 438.4c62.4795 0 113.28 -50.8809 113.28 -113.28c0 -26.1201 -9.08008 -50.2803 -24 -69.4404l-158.721 158.721c19.1602 14.9199 43.3203 24 69.4404 24zM263.04 399.68l159.68 -159.68c-19.9199 -17.4805 -46.04 -28.1602 -74.5596 -28.1602
c-62.4004 0 -113.28 50.8799 -113.28 113.28c0 28.5195 10.6797 54.6396 28.1602 74.5596zM216.96 299.52c10.3604 -53.3594 52.5596 -95.3193 105.92 -105.6c-43.7197 -29.1602 -123.28 -84.6396 -167.68 -128.96c-2.68066 -3.08008 -7.40039 -6.08008 -13.4404 -6.08008
c-5.51953 0 -10.7998 2.48047 -15.6797 7.36035l-37.1201 37.1201c-6.04004 6.04004 -7 12.04 -6.71973 16c0.479492 7 4.75977 11.7598 6.71973 13.4395c45.1602 45.2803 99.3604 123.44 128 166.72zM227.2 217.28c-3.08008 0 -6.32031 -1.2002 -8.64062 -3.52051
l-27.5195 -27.8398c-4.67969 -4.67969 -4.67969 -12.2803 0 -16.96l0.959961 -0.959961c4.63965 -4.67969 12.2803 -4.67969 16.96 0l27.8398 27.8398c4.68066 4.64062 4.64062 12.2803 0 16.96l-1.28027 0.959961c-2.31934 2.32031 -5.23926 3.52051 -8.31934 3.52051z
M370.56 150.08c18.9209 -0.520508 36.7607 -8.59961 49.6006 -21.4404c13.2803 -13.2793 20.5596 -30.5996 20.7998 -48.6396c0.280273 -20.2002 -8.51953 -39.8799 -25.2803 -56.6396l-64.6396 -64.96c-4.2002 -4.2002 -11.1602 -4.2002 -15.3604 0
c-4.19922 4.19922 -4.19922 11.1592 0 15.3594l64.96 64.96c27.2402 27.2402 21.7207 57 4.16016 74.5605c-17.5596 17.5996 -48.96 23.96 -76.1602 -3.2002l-140.479 -140.48c-15.6006 -15.5996 -34.5205 -23.6797 -54.0801 -23.6797
c-6.12012 0 -12.4404 0.919922 -18.5605 2.56055c-25.2393 6.75977 -45.5996 26.6797 -52.1592 51.1992c-6.7207 25.0801 1.35938 50.6406 22.7197 72l2.55957 2.87988l15.3604 -15.3594l-2.87988 -2.56055c-15.6396 -15.6797 -21.6006 -33.8799 -16.96 -51.1992
c4.59961 -17.2002 19.2002 -31.3604 37.1201 -36.1602c18.3193 -4.91992 36.7197 0.55957 51.8398 15.6797l140.479 140.48c17.96 18 38.04 25.1592 56.96 24.6396z" />
    <glyph glyph-name="mic-2" unicode="&#xf107;" 
d="M256 413.866c28.2793 0 51.2002 -22.9199 51.2002 -51.1992v-204.801c0 -28.2793 -22.9209 -51.1992 -51.2002 -51.1992s-51.2002 22.9199 -51.2002 51.1992v204.801c0 28.2793 22.9209 51.1992 51.2002 51.1992zM153.333 243.434l0.266602 0.00195312
c9.42188 0 17.0684 -7.64648 17.0684 -17.0684l-0.000976562 -0.233398v-68.2676c0 -46.6172 36.8682 -84.1016 83.1992 -85.2334c0.513672 0.0654297 1.34961 0.125 1.86719 0.133789h0.0693359c0.59082 0 1.54492 -0.0595703 2.13086 -0.133789
c46.4248 1.02832 83.3994 38.5488 83.3994 85.2334v68.2676l-0.000976562 0.241211c0 9.42188 7.64648 17.0684 17.0684 17.0684s17.0684 -7.64648 17.0684 -17.0684l-0.00195312 -0.241211v-68.2676c0 -59.9717 -44.6709 -109.751 -102.4 -118.1v-35.5h51.2002
c0.0664062 0.000976562 0.174805 0.00195312 0.241211 0.00195312c9.42188 0 17.0684 -7.64648 17.0684 -17.0684s-7.64648 -17.0684 -17.0684 -17.0684c-0.0664062 0 -0.174805 0.000976562 -0.241211 0.000976562h-65.5664
c-0.763672 -0.125977 -2.00977 -0.227539 -2.7832 -0.227539s-2.02051 0.101562 -2.7832 0.227539h-65.4004c-0.0664062 0 -0.174805 -0.000976562 -0.241211 -0.000976562c-9.42188 0 -17.0684 7.64648 -17.0684 17.0684s7.64648 17.0684 17.0684 17.0684
c0.0664062 0 0.174805 -0.000976562 0.241211 -0.00195312h51.2002v35.5c-57.7295 8.34863 -102.4 58.1279 -102.4 118.1v68.2676l-0.00195312 0.233398c0 9.27539 7.52734 16.9209 16.8018 17.0664z" />
    <glyph glyph-name="play-button" unicode="&#xf10b;" 
d="M170.667 302.464c0 16.832 18.5811 27.0508 32.7891 18.0059l173.589 -110.507c13.1846 -8.38379 13.1846 -27.6055 0 -35.9893l-173.589 -110.464c-14.208 -9.02441 -32.7891 1.17285 -32.7891 18.0049v220.949z" />
    <glyph glyph-name="previous-track" unicode="&#xf109;" 
d="M128 345.6c14.1309 0 25.5996 -11.4688 25.5996 -25.5996v-256c0 -14.1309 -11.4688 -25.5996 -25.5996 -25.5996s-25.5996 11.4688 -25.5996 25.5996v256c0 14.1309 11.4688 25.5996 25.5996 25.5996zM392.533 345.6c9.4209 0 17.0664 -7.64551 17.0664 -17.0664
v-0.0332031v-0.0332031v-136.467v-136.467v-0.0332031v-0.0332031c0 -9.4209 -7.64551 -17.0664 -17.0664 -17.0664h-0.000976562c-3.09863 0 -7.63867 1.49316 -10.1318 3.33301l-187 136.033c-4.22852 2.79004 -7.66406 9.16699 -7.66699 14.2334
c0.00292969 5.02344 3.39355 11.3701 7.56641 14.167l0.266602 0.199219c0.00976562 0.00976562 0.0244141 0.0244141 0.0332031 0.0341797l186.334 135.5c0.126953 0.103516 0.335938 0.267578 0.466797 0.366211c2.49316 1.83984 7.0332 3.33301 10.1318 3.33301
h0.000976562z" />
  </font>
</defs>
</svg>
